<svg id="Layer_1" xmlns="http://www.w3.org/2000/svg" xmlns:xlink="http://www.w3.org/1999/xlink" viewBox="0 0 770 148.6" style="enable-background:new 0 0 770 148.6"><style>.st0{fill-rule:evenodd;clip-rule:evenodd;fill:#d1b000}.st1{fill:#fff}.st2{fill:#d1b000}</style><g id="Layer_2_1_"><g id="Layer_21"><g id="pixel_dark"><g id="Group_5"><path class="st0" d="M0 26.9h14.9v14.9H0V26.9z"/><path class="st0" d="M51 3.4h14.9v14.9H51V3.4z"/><path class="st0" d="M15 54.9h14.9v14.9H15V54.9z"/><path class="st0" d="M36.5 24.9h14.9v14.9H36.5V24.9z"/><path class="st0" d="M0 103.9h14.9v14.9H0V103.9z"/><path class="st0" d="M40.5 126.9h14.9v14.9H40.5V126.9z"/><path class="st0" d="M27.5 89.4h14.9v14.9H27.5V89.4z"/><g><path class="st0" d="M160.4 66.8c-2.1.0-4.2.6-5.9 1.9-1.8 1.4-3.1 3.3-3.8 5.4h16.4c.5-1.9.0-3.9-1.4-5.3C164.4 67.4 162.4 66.7 160.4 66.8z"/><path class="st0" d="M155 7.2C145.1 2.5 134.3.0 123.3.0c-9.6.0-19.1 1.8-28 5.5v12.8H80.5v-4.7c-4.6 3.3-8.9 7.1-12.7 11.3h2v14.9H57.5c-3.2 6.2-5.6 12.8-7 19.6h10.8v14.9H49c0 5.1.5 10.1 1.5 15.1h13.3v14.9h-8.5c2.3 5.2 5.2 10.2 8.6 14.7v-14.6h14.9v14.9H64.2c3.6 4.7 7.7 9 12.3 12.7v-4h14.9v13.5c37.1 17.6 81.4 1.8 99-35.3C207.9 69 192.1 24.7 155 7.2zM61.5 59.3V44.4h14.9v14.9H61.5zm55.7 40.4 5.7-32.2-17.7 32.1H94.6l-6.4-32.3-5.7 32.3h-13L79 46h15.4l8.5 37.2L124.3 46h15.4l-9.5 53.7h-13zm62.8-22c-.3 1.3-.6 2.5-1 3.8h-29.6c-.3 2.7.2 4.7 1.5 6.1 1.3 1.4 3.2 2.2 5.2 2.1 3.1.1 6-1.5 7.5-4.1h13.9c-1.2 2.8-3 5.4-5.2 7.6-4.7 4.6-11.1 7.2-17.7 7.2-3.7.1-7.4-.8-10.7-2.7-2.9-1.8-5.1-4.5-6.3-7.7-1.3-3.7-1.5-7.8-.7-11.6.7-4.2 2.3-8.2 4.8-11.6 2.3-3.3 5.4-5.9 9-7.7 3.6-1.8 7.7-2.7 11.7-2.7 3.7-.1 7.3.8 10.5 2.6 2.9 1.7 5.1 4.3 6.2 7.4C180.5 70 180.8 73.9 180 77.7z"/></g><path class="st1" d="M315 38.7l-12.6 71.5H285l7.6-42.9L269 110.2h-14l-8.5-43-7.6 43h-17.5L234 38.7h20.6L266 88.2l28.6-49.5H315z"/><path class="st1" d="M342.4 53.4l-10 56.9H315l10-56.9h17.4zm-14.6-8.6c-1.6-1.8-2.3-4.3-1.7-6.7.5-2.7 1.9-5.1 4.1-6.8 2.3-1.8 5.1-2.8 8-2.7 2.6-.1 5.1.8 6.8 2.7 1.6 1.8 2.3 4.4 1.7 6.8-.5 2.7-1.9 5-4.1 6.7-2.2 1.8-5 2.7-7.9 2.7C331.7 47.5 329.4 46.6 327.8 44.8z"/><path class="st1" d="M404.6 59.2c3.2 4.3 4.1 10.2 2.8 17.8l-5.9 33.2h-17.3l5.5-30.9c.7-3.8.2-6.8-1.4-8.9s-4.1-3.2-7.4-3.2c-3.1-.1-6.2 1.1-8.5 3.2-2.5 2.4-4.1 5.5-4.5 8.9l-5.5 30.9H345l10-56.9h17.4l-1.3 7.5c2.3-2.6 5.1-4.6 8.2-6 3.3-1.5 6.9-2.2 10.5-2.2C396.5 52.7 401.4 54.9 404.6 59.2z"/><path class="st1" d="M448 95.5l-2.6 14.8h-8.9c-6.3.0-11-1.5-14-4.6s-3.9-8.1-2.5-15.1l4-22.6h-7l2.5-14.5h6.9l2.4-13.9h17.4l-2.4 13.9h11.4L452.7 68h-11.4l-4 22.8c-.3 1.7-.1 2.9.6 3.7s2 1.1 3.9 1.1H448z"/><path class="st2" d="M548.7 38.7l-12.6 71.5h-17.4l7.6-42.9-23.6 42.9h-14.1l-8.5-43-7.6 43h-17.4l12.6-71.5h20.6l11.3 49.5 28.6-49.5L548.7 38.7z"/><path class="st2" d="M606.2 86h-39.4c-.3 3.5.3 6.2 2 8.1 1.8 1.9 4.3 2.9 6.9 2.8 4.1.1 7.9-2 10-5.5h18.5c-1.6 3.8-4 7.2-6.9 10.1-6.3 6.2-14.7 9.6-23.5 9.6-5 .1-9.9-1.1-14.3-3.6-3.9-2.3-6.9-5.9-8.4-10.2-1.7-4.4-2-9.6-.9-15.5.9-5.6 3.1-10.9 6.3-15.5 3.1-4.3 7.2-7.8 11.9-10.2 4.9-2.4 10.2-3.6 15.6-3.6 4.9-.2 9.8 1 14.1 3.4 3.8 2.2 6.7 5.7 8.3 9.9 1.7 4.3 2 9.3 1 15C607.1 82.6 606.7 84.3 606.2 86zM590.4 76.3c.5-3-.1-5.4-1.8-7.1-1.9-1.8-4.5-2.8-7.2-2.7-2.8.0-5.6.9-7.8 2.6-2.4 1.8-4.1 4.4-5 7.2h21.8z"/><path class="st2" d="M609.7 109.1c-1-1.1-1.4-2.7-1.1-4.2.3-1.7 1.2-3.2 2.6-4.3 1.4-1.2 3.2-1.8 5-1.7 1.6-.1 3.2.5 4.3 1.7 1 1.2 1.4 2.8 1.1 4.3-.3 1.7-1.2 3.2-2.5 4.2-1.4 1.1-3.1 1.7-4.9 1.7C612.4 110.9 610.8 110.2 609.7 109.1z"/><path class="st2" d="M632 82.8c1.9-2.7 4.5-4.9 7.4-6.4 3-1.5 6.3-2.3 9.7-2.2 4.5.0 8 1.2 10.5 3.5 2.6 2.3 4 5.6 4.2 9.9h-11.6c-.5-2.7-2.1-4.1-5-4.1-2 0-3.9.8-5.2 2.3-1.6 1.9-2.7 4.2-3 6.7-.5 2.9-.3 5.1.6 6.7.9 1.5 2.6 2.4 4.4 2.3 2.8.0 5.3-1.6 6.4-4.1H662c-1.5 4-4.2 7.4-7.7 9.8-3.5 2.4-7.6 3.6-11.8 3.6-3.1.1-6.2-.7-8.9-2.2-2.4-1.5-4.2-3.7-5.2-6.4-1-3.1-1.2-6.5-.5-9.7C628.5 89 629.9 85.7 632 82.8z"/><path class="st2" d="M672.6 108.5c-2.5-1.4-4.4-3.7-5.4-6.4-1.1-3.1-1.4-6.5-.7-9.7.6-3.5 2-6.8 4.1-9.7 2-2.7 4.7-4.9 7.8-6.4 3.1-1.5 6.4-2.2 9.8-2.2 3.1-.1 6.3.7 9 2.2 2.5 1.4 4.4 3.7 5.5 6.4 1.1 3.1 1.4 6.4.7 9.7-.6 3.5-2 6.8-4.2 9.7-2.1 2.7-4.7 4.9-7.8 6.4-3.1 1.5-6.4 2.2-9.8 2.2C678.5 110.8 675.4 110 672.6 108.5zM689 99c1.8-1.7 3-4.1 3.3-6.6.5-2.8.2-5-1-6.6-1.1-1.5-3-2.4-4.8-2.3-2.1.0-4.1.8-5.7 2.3-1.8 1.8-3 4.1-3.3 6.6-.5 2.8-.2 5 .9 6.6 1.1 1.5 2.9 2.4 4.8 2.3C685.4 101.3 687.4 100.5 689 99z"/><path class="st2" d="M767.7 78.3c2.1 2.7 2.8 6.4 2 11.2l-3.7 20.8h-10.9l3.4-19.3c.4-2.3.1-4.1-.9-5.3-1.2-1.3-2.9-2-4.6-1.9-1.9-.1-3.9.6-5.3 1.9-1.5 1.4-2.5 3.3-2.8 5.3l-3.4 19.3h-10.9L734 91c.4-2.3.1-4.1-.9-5.3-1.2-1.3-2.9-2-4.7-1.9-1.9-.1-3.9.6-5.3 1.9-1.5 1.4-2.5 3.3-2.8 5.3l-3.4 19.3H706l6.3-35.5h10.9l-.8 4.5c2.9-3.1 7-4.9 11.2-4.8 2.4-.1 4.8.5 6.9 1.7 1.9 1.1 3.3 2.9 4.1 4.9 1.6-2 3.6-3.6 5.9-4.8 2.2-1.2 4.7-1.8 7.3-1.8C762.2 74.3 765.5 75.6 767.7 78.3z"/></g></g></g></g></svg>